<?xml version="1.0" encoding="iso-8859-1"?>
<!-- Generator: Adobe Illustrator 16.0.0, SVG Export Plug-In . SVG Version: 6.00 Build 0)  -->
<!DOCTYPE svg PUBLIC "-//W3C//DTD SVG 1.1//EN" "http://www.w3.org/Graphics/SVG/1.1/DTD/svg11.dtd">
<svg version="1.1" id="Capa_1" xmlns="http://www.w3.org/2000/svg" xmlns:xlink="http://www.w3.org/1999/xlink" x="0px" y="0px"
	 width="950px" height="950px" viewBox="0 0 950 950" style="enable-background:new 0 0 950 950;" xml:space="preserve">
<g>
	<rect x="655.8" y="437.8" width="104.101" height="74.4"/>
	<rect x="186.8" y="165" width="104.101" height="219.9"/>
	<rect x="501.4" y="565.1" width="101.5" height="219.9"/>
	<rect x="343.8" y="165" width="104.7" height="219.9"/>
	<path d="M36.2,785h97.7V165H36.2C16.2,165,0,181.2,0,201.2v547.6C0,768.8,16.2,785,36.2,785z"/>
	<rect x="343.8" y="565.1" width="104.7" height="219.9"/>
	<rect x="190.1" y="437.8" width="100.8" height="74.4"/>
	<path d="M950,748.8V207.3c0-23.4-18.9-42.3-42.3-42.3h-94.9v219.9V565.1V785h101C933.8,785,950,768.8,950,748.8z"/>
	<rect x="655.8" y="165" width="104.101" height="219.9"/>
	<rect x="655.8" y="565.1" width="104.101" height="219.9"/>
	<rect x="501.4" y="165" width="101.5" height="219.9"/>
	<rect x="501.4" y="437.8" width="101.5" height="74.4"/>
	<rect x="186.8" y="565.1" width="104.101" height="219.9"/>
	<rect x="343.8" y="437.8" width="104.7" height="74.4"/>
</g>
<g>
</g>
<g>
</g>
<g>
</g>
<g>
</g>
<g>
</g>
<g>
</g>
<g>
</g>
<g>
</g>
<g>
</g>
<g>
</g>
<g>
</g>
<g>
</g>
<g>
</g>
<g>
</g>
<g>
</g>
</svg>
