<?xml version="1.0" encoding="iso-8859-1"?>
<!-- Generator: Adobe Illustrator 18.1.1, SVG Export Plug-In . SVG Version: 6.00 Build 0)  -->
<svg version="1.1" id="Capa_1" xmlns="http://www.w3.org/2000/svg" xmlns:xlink="http://www.w3.org/1999/xlink" x="0px" y="0px"
	 viewBox="0 0 321.732 321.732" style="enable-background:new 0 0 321.732 321.732;" xml:space="preserve">
<g>
	<g>
		<path style="fill:#010002;" d="M93.234,52.808c-18.808,5.907-33.282,21.256-38.073,40.38c0.571-0.016,1.131-0.076,1.702-0.076
			c15.561,0,30.486,5.434,42.441,15.044c2.72-3.171,5.668-6.119,8.838-8.838C97.542,86.171,92.217,69.821,93.229,52.846
			C93.234,52.83,93.234,52.819,93.234,52.808z"/>
		<path style="fill:#010002;" d="M108.143,222.425c-3.16-2.714-6.108-5.657-8.822-8.822c-12.02,9.676-26.929,15.023-42.414,15.023
			c-1.746,0-3.476-0.141-5.211-0.277c6.375,18.183,21.762,32.482,41.495,36.779C93.109,249.512,98.331,234.592,108.143,222.425z"/>
		<path style="fill:#010002;" d="M49.02,217.133c2.616,0.364,5.243,0.615,7.887,0.615c12.689,0,25.395-4.275,35.898-12.858
			c-7.065-10.884-11.58-23.54-12.733-37.16c0-0.022,0-0.044-0.005-0.065h-0.141H66.953h-7.642h-7.169H40.084
			c-4.509,0-8.159-3.655-8.159-8.159s3.65-8.159,8.159-8.159h18.792h7.457h4.449h3.856h5.695c0.201-1.697,0.468-3.378,0.772-5.042
			c1.947-10.693,5.983-20.652,11.694-29.453c-10.378-8.485-23.111-12.869-35.93-12.869c-1.11,0-2.225,0.082-3.334,0.147
			c-1.822,0.109-3.639,0.294-5.445,0.577c-1.833,0.283-3.655,0.647-5.466,1.115c-8.441,2.181-16.513,6.309-23.486,12.499
			c-23.497,20.848-25.651,56.8-4.803,80.297c6.587,7.424,14.702,12.651,23.431,15.762c1.86,0.664,3.737,1.224,5.646,1.686
			C45.267,216.518,47.138,216.872,49.02,217.133z"/>
		<path style="fill:#010002;" d="M266.86,94.433c-4.471-19.711-19.167-35.615-38.4-41.636c0.158,2.692,0.212,5.401,0.049,8.131
			c-0.854,14.245-6.097,27.522-14.892,38.405c3.394,2.91,6.565,6.075,9.437,9.502c11.906-9.344,26.586-14.511,41.767-14.511
			C265.506,94.324,266.175,94.411,266.86,94.433z"/>
		<path style="fill:#010002;" d="M221.798,214.283c-2.54,2.894-5.26,5.613-8.18,8.121c8.795,10.884,14.038,24.155,14.892,38.405
			c0.087,1.447,0.054,2.883,0.049,4.319c19.265-4.194,34.418-17.922,41.054-35.501c-1.577,0.109-3.155,0.212-4.743,0.212
			C249.004,229.839,233.845,224.22,221.798,214.283z"/>
		<path style="fill:#010002;" d="M123.122,307.4c10.829,9.611,24.302,14.332,37.725,14.332c15.697,0,31.329-6.467,42.572-19.135
			c6.614-7.457,10.894-16.165,12.934-25.248c0.408-1.822,0.723-3.655,0.946-5.493c0.223-1.817,0.359-3.639,0.408-5.466
			c0.354-13.331-3.998-26.673-12.814-37.453c-10.171,6.603-21.892,10.987-34.505,12.472v1.55v8.583v7.691v22.425
			c0,4.504-3.65,8.159-8.159,8.159c-4.509,0-8.159-3.655-8.159-8.159V256.61v-8.202v-6.739c-0.566-0.049-1.142-0.049-1.702-0.109
			c-12.999-1.36-25.069-5.842-35.517-12.624c-8.931,10.933-13.146,24.253-12.782,37.453c0.049,1.828,0.185,3.65,0.413,5.466
			c0.228,1.844,0.544,3.677,0.952,5.493C107.958,288.586,113.848,299.176,123.122,307.4z"/>
		<path style="fill:#010002;" d="M279.142,107.101c-1.806-0.468-3.622-0.843-5.461-1.131c-1.806-0.283-3.622-0.484-5.444-0.593
			c-1.137-0.071-2.274-0.179-3.416-0.179c-12.472,0-24.976,4.134-35.397,12.45c5.445,8.605,9.317,18.275,11.21,28.653
			c0.381,2.094,0.745,4.199,0.963,6.347c0.049,0.468,0.033,0.946,0.071,1.414h1.713h1.251h7.794h2.698h5.2h21.337
			c4.509,0,8.159,3.655,8.159,8.159c0,4.504-3.65,8.159-8.159,8.159h-10.095h-6.783h-7.174h-16.203
			c-1.523,12.94-6.07,24.954-12.956,35.305c10.448,8.741,23.383,13.271,36.42,13.271c2.567,0,5.134-0.228,7.685-0.571
			c1.882-0.256,3.748-0.598,5.602-1.044c1.92-0.462,3.824-1.001,5.695-1.664c6.505-2.306,12.706-5.82,18.243-10.617
			c23.742-20.571,26.309-56.496,5.738-80.237C299.995,115.787,289.911,109.891,279.142,107.101z"/>
		<path style="fill:#010002;" d="M167.668,62.522v8.246v0.141v9.159c1.713,0.141,3.399,0.375,5.086,0.625
			c11.71,1.73,22.61,5.923,32.139,12.107c9.883-12.091,14.125-27.402,12.461-42.289c-0.207-1.849-0.5-3.693-0.892-5.521
			c-0.397-1.871-0.887-3.731-1.479-5.57c-2.344-7.277-6.168-14.201-11.563-20.288C192.182,6.467,176.55,0,160.847,0
			c-13.424,0-26.896,4.721-37.725,14.332c-7.892,7-13.315,15.719-16.328,25.085c-0.593,1.833-1.082,3.688-1.485,5.57
			c-0.392,1.828-0.691,3.666-0.897,5.521c-1.659,14.734,2.415,30.013,12.439,42.289c9.529-6.184,20.429-10.372,32.134-12.102
			c0.789-0.114,1.566-0.267,2.361-0.364v-4.667v-7.914v-7.685v-7.033V40.08c0-4.504,3.65-8.159,8.159-8.159
			c4.509,0,8.159,3.655,8.159,8.159v15.126v7.316H167.668z"/>
		<path style="fill:#010002;" d="M224.381,147.834c-0.397-1.936-0.897-3.829-1.463-5.695c-1.273-4.226-2.948-8.278-5.009-12.091
			c-0.946-1.751-1.985-3.443-3.084-5.091c-1.05-1.577-2.187-3.089-3.367-4.569c-2.834-3.541-6.01-6.793-9.518-9.665
			c-1.452-1.191-2.964-2.317-4.525-3.383c-1.643-1.12-3.34-2.165-5.086-3.133c-4.623-2.573-9.611-4.547-14.838-5.934
			c-1.882-0.5-3.796-0.919-5.738-1.246c-1.866-0.315-3.748-0.566-5.662-0.718c-1.73-0.136-3.459-0.261-5.221-0.261
			c-1.762,0-3.492,0.125-5.221,0.261c-1.915,0.152-3.796,0.402-5.662,0.718c-1.947,0.332-3.856,0.751-5.738,1.246
			c-5.227,1.387-10.209,3.356-14.832,5.929c-1.746,0.974-3.448,2.012-5.091,3.138c-1.55,1.061-3.062,2.187-4.514,3.372
			c-3.323,2.725-6.375,5.771-9.1,9.1c-1.186,1.447-2.306,2.953-3.367,4.498c-1.126,1.648-2.17,3.35-3.144,5.102
			c-2.225,4.003-4.041,8.262-5.39,12.727c-0.56,1.866-1.066,3.758-1.463,5.695c-0.375,1.838-0.642,3.715-0.854,5.608
			c-0.277,2.442-0.457,4.911-0.457,7.43c0,0.402,0.054,0.789,0.06,1.191c0.033,1.925,0.12,3.835,0.315,5.711
			c0.207,1.953,0.506,3.878,0.881,5.776c1.327,6.69,3.693,12.999,6.908,18.781c0.968,1.74,2.002,3.437,3.122,5.075
			c1.077,1.577,2.214,3.106,3.421,4.58c2.714,3.307,5.749,6.331,9.056,9.045c1.452,1.191,2.959,2.312,4.509,3.372
			c1.643,1.126,3.345,2.165,5.096,3.138c6.396,3.557,13.467,6.016,20.962,7.234c1.915,0.31,3.845,0.549,5.814,0.685
			c1.218,0.087,2.437,0.169,3.671,0.185c0.337,0.005,0.664,0.049,1.001,0.049s0.664-0.044,1.001-0.049
			c1.235-0.016,2.453-0.098,3.671-0.185c1.964-0.141,3.9-0.375,5.814-0.685c7.5-1.224,14.571-3.682,20.973-7.239
			c1.746-0.974,3.448-2.012,5.086-3.133c1.556-1.066,3.068-2.192,4.525-3.383c3.127-2.567,5.999-5.423,8.599-8.523
			c1.202-1.43,2.322-2.926,3.394-4.455c1.148-1.637,2.214-3.334,3.214-5.075c3.399-5.95,5.912-12.466,7.288-19.407
			c0.375-1.898,0.674-3.824,0.881-5.776c0.201-1.882,0.283-3.791,0.315-5.716c0.005-0.403,0.06-0.789,0.06-1.191
			c0-2.518-0.18-4.988-0.457-7.43C225.023,151.549,224.756,149.672,224.381,147.834z"/>
	</g>
</g>
<g>
</g>
<g>
</g>
<g>
</g>
<g>
</g>
<g>
</g>
<g>
</g>
<g>
</g>
<g>
</g>
<g>
</g>
<g>
</g>
<g>
</g>
<g>
</g>
<g>
</g>
<g>
</g>
<g>
</g>
</svg>
