<?xml version="1.0" encoding="iso-8859-1"?>
<!-- Generator: Adobe Illustrator 16.0.0, SVG Export Plug-In . SVG Version: 6.00 Build 0)  -->
<!DOCTYPE svg PUBLIC "-//W3C//DTD SVG 1.1//EN" "http://www.w3.org/Graphics/SVG/1.1/DTD/svg11.dtd">
<svg version="1.1" id="Capa_1" xmlns="http://www.w3.org/2000/svg" xmlns:xlink="http://www.w3.org/1999/xlink" x="0px" y="0px"
	 width="366.521px" height="366.521px" viewBox="0 0 366.521 366.521" style="enable-background:new 0 0 366.521 366.521;"
	 xml:space="preserve">
<g>
	<path d="M353.286,40.4H13.22C5.909,40.4,0,46.315,0,53.62v259.267c0,7.307,5.909,13.234,13.22,13.234h340.066
		c7.308,0,13.234-5.928,13.234-13.234V53.625C366.521,46.321,360.588,40.4,353.286,40.4z M299.135,80.239h24.788
		c4.882,0,8.827,3.948,8.827,8.818c0,4.876-3.945,8.818-8.827,8.818h-24.788c-4.863,0-8.82-3.942-8.82-8.818
		C290.32,84.187,294.271,80.239,299.135,80.239z M215.645,80.239h24.8c4.876,0,8.815,3.948,8.815,8.818
		c0,4.876-3.939,8.818-8.815,8.818h-24.8c-4.864,0-8.821-3.942-8.821-8.818C206.823,84.187,210.78,80.239,215.645,80.239z
		 M128.308,81.617h24.794c4.876,0,8.818,3.948,8.818,8.818c0,4.876-3.942,8.815-8.818,8.815h-24.794
		c-4.87,0-8.824-3.939-8.824-8.815C119.483,85.565,123.438,81.617,128.308,81.617z M67.14,288.266H40.686
		c-4.864,0-8.818-3.945-8.818-8.821c0-4.87,3.954-8.821,8.818-8.821H67.14c4.876,0,8.818,3.951,8.818,8.821
		C75.949,284.321,72.016,288.266,67.14,288.266z M67.14,224.891H40.686c-4.864,0-8.818-3.951-8.818-8.814
		c0-4.876,3.954-8.815,8.818-8.815H67.14c4.876,0,8.818,3.939,8.818,8.815C75.949,220.953,72.016,224.891,67.14,224.891z
		 M67.14,161.244H40.686c-4.864,0-8.818-3.945-8.818-8.815c0-4.876,3.954-8.818,8.818-8.818H67.14c4.876,0,8.818,3.942,8.818,8.818
		C75.949,157.304,72.016,161.244,67.14,161.244z M70.439,97.875H43.988c-4.864,0-8.818-3.942-8.818-8.818
		c0-4.87,3.954-8.818,8.818-8.818h26.451c4.885,0,8.824,3.948,8.824,8.818C79.257,93.933,75.324,97.875,70.439,97.875z
		 M170.029,299.669h-57.153v-40.887h57.153V299.669z M170.029,232.332h-57.153v-35.267h57.153V232.332z M170.029,170.617h-57.153
		v-35.271h57.153V170.617z M258.194,299.669h-61.718v-40.887h61.718V299.669z M258.194,232.332h-61.718v-35.267h61.718V232.332z
		 M258.194,170.617h-61.718v-35.271h61.718V170.617z M340.063,299.669h-55.418v-40.887h55.418V299.669z M340.063,232.332h-55.418
		v-35.267h55.418V232.332z M340.063,170.617h-55.418v-35.271h55.418V170.617z"/>
</g>
<g>
</g>
<g>
</g>
<g>
</g>
<g>
</g>
<g>
</g>
<g>
</g>
<g>
</g>
<g>
</g>
<g>
</g>
<g>
</g>
<g>
</g>
<g>
</g>
<g>
</g>
<g>
</g>
<g>
</g>
</svg>
