<?xml version="1.0" encoding="iso-8859-1"?>
<!-- Generator: Adobe Illustrator 16.0.0, SVG Export Plug-In . SVG Version: 6.00 Build 0)  -->
<!DOCTYPE svg PUBLIC "-//W3C//DTD SVG 1.1//EN" "http://www.w3.org/Graphics/SVG/1.1/DTD/svg11.dtd">
<svg version="1.1" id="Capa_1" xmlns="http://www.w3.org/2000/svg" xmlns:xlink="http://www.w3.org/1999/xlink" x="0px" y="0px"
	 width="420.822px" height="420.822px" viewBox="0 0 420.822 420.822" style="enable-background:new 0 0 420.822 420.822;"
	 xml:space="preserve">
<g>
	<path d="M348.511,227.42c-37.539-42.036-85.701-65.303-112.007-75.702c-0.761-5.245-1.64-10.175-2.577-14.928l35.775-8.621
		l60.51,22.815l61.61-28.279l-3.296-7.158l-58.608,26.903l-59.712-22.515l-36.897,8.887c4.45-8.326,7.206-18.854,7.206-30.46
		c0-4.835-0.49-9.496-1.355-13.896l29.854-6.292l12.882-37.647l67.041-20.118l-2.26-7.541l-70.921,21.275l-12.735,37.24
		l-25.877,5.442c-2.92-8.934-7.556-16.339-13.289-21.048c9.88-2.996,16.673-8.796,16.673-15.548c0-9.795-14.119-17.74-31.533-17.74
		c-17.41,0-31.53,7.945-31.53,17.74c0,6.752,6.791,12.553,16.675,15.548c-5.677,4.651-10.244,11.932-13.185,20.706l-24.263-5.1
		l-12.736-37.24L73.019,12.874l-2.258,7.539l67.038,20.119l12.88,37.647l28.215,5.945c-0.919,4.522-1.44,9.28-1.44,14.249
		c0,12.261,2.997,23.401,7.91,31.913c-0.245,1.059-0.446,2.274-0.675,3.384l-45.377-10.922L79.6,145.263l-58.61-26.9l-3.294,7.155
		l61.614,28.279l60.51-22.805l43.325,10.427c-0.644,3.71-1.249,7.565-1.798,11.516c-26.841,10.93-72.844,33.973-109.036,74.496
		C23.63,281.948-15.99,350.692,6.434,370.742c3.423,3.053,8.005,4.603,13.62,4.603c0.005,0,0.005,0,0.005,0
		c26.523,0,75.287-34.66,121.336-86.229c15.42-17.269,27.483-35.962,36.87-53.898c0.285,5.077,0.682,9.992,1.13,14.807
		c-6.952,18.648-15.067,47.907-15.296,83.705l-64.952,68.816l5.727,5.408l67.101-71.111v-1.56c0-26.193,4.52-49.077,9.646-66.643
		c5.388,36.541,15.574,61.297,27.363,61.297c12.551,0,23.341-28.028,28.398-68.53c5.963,18.281,11.878,43.918,11.878,73.876v1.56
		l67.105,71.104l5.729-5.404l-64.96-68.823c-0.263-40.509-10.609-72.657-17.953-90.469c0.33-4.268,0.606-8.591,0.811-13.045
		c9.718,19.437,22.571,40.033,39.436,58.911c46.053,51.568,94.813,86.229,121.338,86.229c5.618,0,10.192-1.55,13.624-4.608
		C436.814,350.682,397.183,281.938,348.511,227.42z M135.51,283.853c-43.25,48.443-91.803,83.591-115.451,83.591
		c-3.624,0-6.437-0.871-8.375-2.595c-13.548-12.115,10.433-69.374,66.509-132.192c43.692-48.914,102.329-71.727,121.3-78.159
		C195.254,174.093,179.213,234.928,135.51,283.853z M409.131,364.859c-1.934,1.718-4.752,2.595-8.367,2.595
		c-23.657,0-72.214-35.153-115.459-83.591c-43.693-48.93-59.74-109.782-63.98-129.361c18.966,6.417,77.573,29.188,121.304,78.165
		C398.705,295.485,422.68,352.733,409.131,364.859z"/>
</g>
<g>
</g>
<g>
</g>
<g>
</g>
<g>
</g>
<g>
</g>
<g>
</g>
<g>
</g>
<g>
</g>
<g>
</g>
<g>
</g>
<g>
</g>
<g>
</g>
<g>
</g>
<g>
</g>
<g>
</g>
</svg>
