<?xml version="1.0" encoding="iso-8859-1"?>
<!-- Generator: Adobe Illustrator 18.1.1, SVG Export Plug-In . SVG Version: 6.00 Build 0)  -->
<svg version="1.1" id="Capa_1" xmlns="http://www.w3.org/2000/svg" xmlns:xlink="http://www.w3.org/1999/xlink" x="0px" y="0px"
	 viewBox="0 0 49.714 49.714" style="enable-background:new 0 0 49.714 49.714;" xml:space="preserve">
<g>
	<path style="fill:#010002;" d="M20.551,38.522c0.388,1.462,0.985,2.413,1.639,3.035v8.157C10.625,48.487,1.421,39.376,0.042,27.857
		h8.44c0.623,0.602,1.547,1.144,2.909,1.506c0.539,0.143,1.127,0.249,1.732,0.343c-0.798,2.095-1.154,4.476,0.727,6.357
		c0.899,0.899,2.083,1.374,3.425,1.374c0.996,0,1.973-0.262,2.934-0.635C20.303,37.402,20.409,37.986,20.551,38.522z M29.728,13.089
		c0.96-0.373,1.937-0.634,2.932-0.634c1.342,0,2.526,0.475,3.425,1.374c1.881,1.881,1.525,4.261,0.728,6.355
		c0.605,0.093,1.194,0.2,1.733,0.343c1.228,0.326,2.093,0.8,2.71,1.33h8.416C48.32,10.561,39.44,1.585,28.19,0.085v8.728
		c0.477,0.605,0.898,1.431,1.197,2.555C29.529,11.904,29.635,12.489,29.728,13.089z M11.392,20.527
		c0.539-0.143,1.127-0.249,1.731-0.343c-0.797-2.095-1.153-4.475,0.728-6.355c0.899-0.899,2.083-1.374,3.425-1.374
		c0.996,0,1.974,0.262,2.934,0.635c0.093-0.601,0.199-1.186,0.341-1.722c0.388-1.462,0.985-2.414,1.639-3.036V0
		C10.625,1.227,1.421,10.338,0.042,21.857h8.64C9.299,21.327,10.165,20.853,11.392,20.527z M38.546,29.363
		c-0.539,0.143-1.129,0.25-1.733,0.343c0.797,2.095,1.154,4.476-0.728,6.357c-0.899,0.899-2.083,1.374-3.425,1.374
		c-0.996,0-1.973-0.262-2.932-0.635c-0.093,0.6-0.199,1.184-0.341,1.719c-0.299,1.125-0.72,1.951-1.197,2.556v8.551
		c11.25-1.499,20.13-10.475,21.482-21.771h-8.217C40.832,28.459,39.909,29.001,38.546,29.363z M26.887,14.409
		c-0.28-2.273-0.723-4.185-1.918-4.185c-1.196,0-1.639,1.912-1.919,4.186c0.702,0.346,1.536,0.741,1.918,0.809
		C25.351,15.15,26.185,14.755,26.887,14.409z M23.051,35.482c0.28,2.273,0.723,4.184,1.918,4.184s1.638-1.91,1.918-4.183
		c-0.703-0.346-1.537-0.741-1.919-0.81C24.585,34.742,23.753,35.136,23.051,35.482z M34.695,24.946
		c0.069,0.383,0.463,1.215,0.809,1.917c2.274-0.28,4.186-0.723,4.186-1.918c0-1.196-1.912-1.638-4.185-1.918
		C35.159,23.729,34.764,24.564,34.695,24.946z M10.248,24.945c0,1.195,1.911,1.638,4.184,1.918c0.346-0.702,0.74-1.535,0.809-1.917
		c-0.069-0.383-0.464-1.217-0.81-1.919C12.159,23.307,10.248,23.75,10.248,24.945z M28.19,32.778
		c-0.327-0.162-0.651-0.318-0.966-0.46c-0.837-0.377-1.616-0.653-2.255-0.653s-1.418,0.276-2.255,0.653
		c-0.172,0.078-0.347,0.16-0.524,0.244c-0.299,0.144-0.604,0.295-0.91,0.448c-0.48,0.239-0.963,0.477-1.437,0.691
		c-0.925,0.417-1.814,0.734-2.565,0.734c-0.507,0-0.952-0.143-1.304-0.495c-0.873-0.873-0.459-2.32,0.24-3.869
		c0.214-0.474,0.451-0.957,0.69-1.437c0.13-0.261,0.258-0.521,0.383-0.777c0.108-0.222,0.211-0.441,0.308-0.657
		c0.377-0.837,0.653-1.616,0.653-2.255s-0.277-1.418-0.653-2.255c-0.123-0.272-0.256-0.551-0.395-0.833
		c-0.098-0.199-0.196-0.399-0.296-0.6c-0.239-0.481-0.477-0.963-0.691-1.438c-0.698-1.549-1.112-2.996-0.24-3.869
		c0.352-0.352,0.797-0.495,1.304-0.495c0.751,0,1.64,0.317,2.565,0.734c0.474,0.214,0.957,0.452,1.437,0.691
		c0.306,0.152,0.611,0.304,0.91,0.448c0.177,0.085,0.351,0.167,0.524,0.244c0.837,0.377,1.616,0.653,2.255,0.653
		s1.418-0.276,2.255-0.653c0.315-0.142,0.639-0.298,0.966-0.46c0.155-0.076,0.31-0.154,0.466-0.231
		c0.481-0.239,0.964-0.478,1.439-0.692c0.925-0.417,1.814-0.734,2.565-0.734c0.507,0,0.952,0.143,1.304,0.495
		c0.873,0.873,0.459,2.32-0.24,3.869c-0.214,0.475-0.451,0.958-0.691,1.438c-0.1,0.201-0.198,0.401-0.296,0.6
		c-0.138,0.282-0.272,0.561-0.395,0.833c-0.377,0.837-0.653,1.616-0.653,2.255s0.277,1.418,0.653,2.255
		c0.097,0.216,0.201,0.435,0.308,0.657c0.124,0.257,0.253,0.516,0.383,0.778c0.239,0.48,0.476,0.962,0.69,1.436
		c0.698,1.549,1.112,2.996,0.24,3.869c-0.352,0.352-0.797,0.495-1.304,0.495c-0.751,0-1.64-0.317-2.565-0.734
		c-0.475-0.214-0.958-0.452-1.438-0.692C28.501,32.932,28.345,32.855,28.19,32.778z M27.319,27.857
		c0.347-0.28,0.642-0.616,0.871-1.002c0.334-0.562,0.538-1.209,0.538-1.91s-0.204-1.349-0.538-1.91
		c-0.277-0.465-0.641-0.87-1.084-1.178c-0.607-0.421-1.342-0.671-2.137-0.671s-1.53,0.25-2.137,0.671
		c-0.238,0.165-0.448,0.362-0.642,0.577c-0.603,0.667-0.98,1.542-0.98,2.511c0,0.969,0.377,1.845,0.98,2.511
		c0.132,0.146,0.276,0.277,0.429,0.401c0.645,0.522,1.456,0.847,2.35,0.847S26.674,28.379,27.319,27.857z"/>
</g>
<g>
</g>
<g>
</g>
<g>
</g>
<g>
</g>
<g>
</g>
<g>
</g>
<g>
</g>
<g>
</g>
<g>
</g>
<g>
</g>
<g>
</g>
<g>
</g>
<g>
</g>
<g>
</g>
<g>
</g>
</svg>
